<svg xmlns="http://www.w3.org/2000/svg" width="43.192" height="43.201" viewBox="0 0 43.192 43.201">
  <path id="Icon_awesome-joomla" data-name="Icon awesome-joomla" d="M.058,8.047a5.775,5.775,0,0,1,11.473-.954,9.674,9.674,0,0,1,9.3,2.892l-4.271,4.271c-1.976-1.976-4.107-1.571-5.341-.337a3.579,3.579,0,0,0,0,5.033l9.593,9.593-4.242,4.271c-8.455-8.407-4.792-4.792-9.622-9.612A9.534,9.534,0,0,1,4.56,13.668,5.724,5.724,0,0,1,.058,8.047ZM12.543,19.269l4.271,4.271c.964-.964,8.648-8.648,9.612-9.622a3.544,3.544,0,0,1,5,0c1.234,1.234,1.639,3.374-.337,5.341l4.242,4.271a9.614,9.614,0,0,0,2.786-9.757,5.791,5.791,0,1,0-6.5-6.556,9.574,9.574,0,0,0-9.477,2.42c-1.764,1.841-6.855,6.893-9.6,9.631ZM38.217,33.943a9.522,9.522,0,0,0-2.536-9.053c-1.138-1.176.482.453-9.593-9.612l-4.271,4.271,9.612,9.612a3.544,3.544,0,0,1,0,5C30.2,35.4,28.055,35.8,26.089,33.827L21.847,38.1a9.534,9.534,0,0,0,9.9,2.7,5.778,5.778,0,1,0,6.469-6.855ZM30.09,28.823l-4.242-4.271c-8.388,8.33-4.859,4.859-9.612,9.622a3.544,3.544,0,0,1-5,0c-1.263-1.292-1.629-3.4.309-5.341L7.3,24.562a9.588,9.588,0,0,0-2.844,9.477,5.78,5.78,0,1,0,6.961,6.9A9.577,9.577,0,0,0,20.5,38.435c3.095-3.085,1.176-1.2,9.593-9.612Z" transform="translate(0 -2.243)" fill="#b97b34"/>
</svg>
