<svg xmlns="http://www.w3.org/2000/svg" width="40.544" height="47.206" viewBox="0 0 40.544 47.206">
  <path id="Icon_awesome-drupal" data-name="Icon awesome-drupal" d="M32.605,10.95c-2.344-1.478-4.593-2.059-6.831-3.537a31.44,31.44,0,0,1-4.91-5.1c-.285,3.094-1.214,4.35-2.323,5.226a30.068,30.068,0,0,1-5.649,3.41C11.225,11.826,2.25,18,2.25,29.512c0,11.53,9.693,20.008,20.462,20.008,10.738,0,20.082-7.813,20.082-19.638A22.964,22.964,0,0,0,32.605,10.95Zm.264,34.378c-2.122,2.122-9.513,3.03-12.322.443-.507-.507.032-1.267.686-1.267a9.247,9.247,0,0,0,5.438,1.4,10.148,10.148,0,0,0,5.754-1.478C33.07,43.945,33.313,44.884,32.869,45.328Zm-5.754-5.554A5.641,5.641,0,0,1,31,39.911c.433.3,1.7,1.985.655,2.5-.887.443-.127-1.658-2.8-1.658a3.684,3.684,0,0,0-2.819,1.161c-.739.633-1.035.845-1.288.5C24.116,41.548,26.429,40.059,27.115,39.774ZM36.881,41.6c-1.6-.106-4.8-5.152-6.863-5.226-3.263-.1-10.991,8.521-17.031,4.434C8.891,38,11.446,29.744,18.457,29.7c5.226-.053,8.848,5.174,11.456,5.121,2.249-.032,6.525-4.413,8.637-4.413C43.691,30.409,41.01,41.949,36.881,41.6Z" transform="translate(-2.25 -2.313)" fill="#3e85b2"/>
</svg>
