<svg xmlns="http://www.w3.org/2000/svg" width="22.792" height="22.792" viewBox="0 0 22.792 22.792">
  <path id="Icon_material-help-outline" data-name="Icon material-help-outline" d="M13.257,21.234h2.279V18.955H13.257ZM14.4,3a11.4,11.4,0,1,0,11.4,11.4A11.4,11.4,0,0,0,14.4,3Zm0,20.513A9.117,9.117,0,1,1,23.513,14.4,9.129,9.129,0,0,1,14.4,23.513Zm0-15.955a4.557,4.557,0,0,0-4.558,4.558h2.279a2.279,2.279,0,1,1,4.558,0c0,2.279-3.419,1.994-3.419,5.7h2.279c0-2.564,3.419-2.849,3.419-5.7A4.557,4.557,0,0,0,14.4,7.558Z" transform="translate(-3 -3)" fill="#fff"/>
</svg>
