<svg xmlns="http://www.w3.org/2000/svg" width="23.68" height="23.68" viewBox="0 0 23.68 23.68">
  <path id="Icon_awesome-expand-arrows-alt" data-name="Icon awesome-expand-arrows-alt" d="M23.68,18.741v5.92a1.265,1.265,0,0,1-1.269,1.269h-5.92a1.27,1.27,0,0,1-.9-2.167l1.913-1.913L11.84,16.183,6.172,21.854l1.915,1.908a1.27,1.27,0,0,1-.9,2.167H1.269A1.265,1.265,0,0,1,0,24.661v-5.92a1.27,1.27,0,0,1,2.167-.9L4.08,19.756,9.75,14.09,4.079,8.418,2.167,10.337A1.27,1.27,0,0,1,0,9.438V3.519A1.265,1.265,0,0,1,1.269,2.25h5.92a1.27,1.27,0,0,1,.9,2.167L6.174,6.331,11.84,12l5.668-5.671L15.593,4.417a1.27,1.27,0,0,1,.9-2.167h5.92A1.265,1.265,0,0,1,23.68,3.519v5.92a1.27,1.27,0,0,1-2.167.9L19.6,8.424,13.93,14.09l5.67,5.671,1.912-1.913A1.268,1.268,0,0,1,23.68,18.741Z" transform="translate(0 -2.25)" fill="#fff"/>
</svg>
