<svg xmlns="http://www.w3.org/2000/svg" width="44.048" height="44.048" viewBox="0 0 44.048 44.048">
  <path id="Icon_awesome-ubuntu" data-name="Icon awesome-ubuntu" d="M22.024.563A22.024,22.024,0,1,0,44.048,22.586,22.02,22.02,0,0,0,22.024.563ZM26.7,8.821a2.831,2.831,0,1,1,1.039,3.872A2.832,2.832,0,0,1,26.7,8.821ZM7.762,25.419a2.833,2.833,0,1,1,2.833-2.833A2.835,2.835,0,0,1,7.762,25.419Zm2.5.275a3.98,3.98,0,0,0,0-6.208,12.212,12.212,0,0,1,5.018-7.025l2.1,3.517a8.078,8.078,0,0,0,0,13.214l-2.1,3.517A12.231,12.231,0,0,1,10.257,25.695Zm20.31,11.7a2.833,2.833,0,1,1,1.039-3.872A2.822,2.822,0,0,1,30.567,37.39Zm.027-6.172a3.981,3.981,0,0,0-5.373,3.108,12.229,12.229,0,0,1-8.588-.835l2-3.579a8.081,8.081,0,0,0,11.447-6.607l4.094.062a12.207,12.207,0,0,1-3.579,7.85Zm-.524-9.351A8.081,8.081,0,0,0,18.623,15.26l-2-3.579a12.228,12.228,0,0,1,8.588-.835,3.986,3.986,0,0,0,5.373,3.108,12.113,12.113,0,0,1,3.57,7.859Z" transform="translate(0 -0.563)" fill="#e33535"/>
</svg>
