<svg xmlns="http://www.w3.org/2000/svg" width="28.415" height="28.415" viewBox="0 0 28.415 28.415">
  <g id="Icon_feather-instagram" data-name="Icon feather-instagram" transform="translate(-1.75 -1.75)">
    <path id="Caminho_1693" data-name="Caminho 1693" d="M9.479,3H22.436a6.479,6.479,0,0,1,6.479,6.479V22.436a6.479,6.479,0,0,1-6.479,6.479H9.479A6.479,6.479,0,0,1,3,22.436V9.479A6.479,6.479,0,0,1,9.479,3Z" fill="none" stroke="#fff" stroke-linecap="round" stroke-linejoin="round" stroke-width="2.5"/>
    <path id="Caminho_1694" data-name="Caminho 1694" d="M22.375,16.358a5.183,5.183,0,1,1-4.367-4.367,5.183,5.183,0,0,1,4.367,4.367Z" transform="translate(-1.234 -1.217)" fill="none" stroke="#fff" stroke-linecap="round" stroke-linejoin="round" stroke-width="2.5"/>
    <path id="Caminho_1695" data-name="Caminho 1695" d="M26.25,9.75h0" transform="translate(-3.166 -0.919)" fill="none" stroke="#fff" stroke-linecap="round" stroke-linejoin="round" stroke-width="2.5"/>
  </g>
</svg>
