<svg xmlns="http://www.w3.org/2000/svg" width="22.476" height="15.735" viewBox="0 0 22.476 15.735">
  <path id="Icon_awesome-docker" data-name="Icon awesome-docker" d="M12.286,9.424H9.964V7.338h2.321Zm0-7.174H9.964V4.382h2.321Zm2.746,5.085H12.71V9.421h2.321V7.335ZM9.543,4.8H7.222v2.11H9.543Zm2.743,0H9.964v2.11h2.321Zm9.72,3.512a4.112,4.112,0,0,0-2.567-.295A3.394,3.394,0,0,0,18,5.783L17.5,5.456l-.327.492a3.56,3.56,0,0,0-.13,3.645,3.532,3.532,0,0,1-1.7.376H.083a7.372,7.372,0,0,0,1.545,5.692,7.207,7.207,0,0,0,5.808,2.325c5.527,0,9.618-2.546,11.532-7.171a3.236,3.236,0,0,0,3.206-1.587c.053-.088.232-.464.3-.6ZM4.058,7.335H1.74V9.421H4.061V7.335Zm2.743,0H4.479V9.421H6.8V7.335Zm2.743,0H7.222V9.421H9.543V7.335ZM6.8,4.8H4.479v2.11H6.8Z" transform="translate(0.003 -2.25)" fill="#fff"/>
</svg>
