<svg xmlns="http://www.w3.org/2000/svg" width="28.92" height="35.985" viewBox="0 0 28.92 35.985">
  <path id="Icon_simple-debian" data-name="Icon simple-debian" d="M20.82,19.02c-.6,0,.12.3.9.42a6.354,6.354,0,0,0,.585-.5,4.5,4.5,0,0,1-1.485.075m3.21-.8a4.182,4.182,0,0,0,.7-1.59,4.02,4.02,0,0,1-.5,1.095c-1.125.7-.1-.405,0-.84-1.2,1.515-.165.9-.21,1.335M25.2,15.15c.075-1.08-.21-.75-.3-.33.1.06.195.75.3.33M18.57.465c.3.06.675.1.63.18.345-.075.42-.15-.645-.18m.645.18L18.975.69l.21-.015V.645m9.945,14.91a5.6,5.6,0,0,1-.57,2.25l-.525.27c-.42.81.045.525-.255,1.17a15.069,15.069,0,0,1-2.43,1.95c-.3,0,.21-.375.285-.51-.885.6-.72.9-2.055,1.275l-.045-.09c-3.33,1.56-7.95-1.53-7.875-5.76-.045.255-.1.195-.18.3a5.325,5.325,0,0,1,3-5.25,5.04,5.04,0,0,1,5.595.72,5.01,5.01,0,0,0-4.08-1.95,4.6,4.6,0,0,0-3.975,2.355c-.9.57-1.005,2.2-1.4,2.49-.54,3.9.99,5.58,3.57,7.56.405.285.12.315.18.525a7.05,7.05,0,0,1-2.295-1.74,5.774,5.774,0,0,0,1.2,1.365c-.825-.27-1.9-1.95-2.22-2.025,1.395,2.49,5.67,4.38,7.89,3.45a9.3,9.3,0,0,1-3.5-.42c-.495-.24-1.155-.765-1.05-.855a8.7,8.7,0,0,0,8.85-1.26c.66-.525,1.4-1.41,1.6-1.425-.3.48.06.24-.18.66.66-1.08-.3-.45.69-1.86l.36.5c-.135-.9,1.11-1.98.99-3.39.285-.45.3.45,0,1.455.435-1.11.12-1.275.225-2.19a7.123,7.123,0,0,1,.345.945,4.317,4.317,0,0,1,.42-2.4c-.135-.075-.42.45-.48-.8,0-.555.15-.3.21-.42a2.422,2.422,0,0,1-.57-1.29c.12-.195.33.495.51.51a9.656,9.656,0,0,1-.3-1.62c-.51-1.02-.18.15-.6-.45-.51-1.635.45-.375.51-1.11a12.819,12.819,0,0,1,1.47,3.69,14.333,14.333,0,0,0-.735-2.64c.24.1-.39-1.86.315-.555A11.73,11.73,0,0,0,26.55,2.4c.27.255.63.585.5.63-1.125-.675-.93-.72-1.095-1.005-.915-.375-.975.03-1.59,0A20.315,20.315,0,0,0,20.7.6l.075.345c-1.155-.375-1.35.15-2.595,0-.075-.06.405-.21.8-.27-1.11.15-1.05-.21-2.145.045a7.411,7.411,0,0,1,.825-.48c-.9.06-2.16.525-1.77.1-1.485.675-4.11,1.6-5.58,2.985L10.26,3c-.675.81-2.94,2.415-3.12,3.465l-.2.045c-.345.6-.57,1.275-.855,1.89-.45.78-.675.3-.6.42a28.75,28.75,0,0,0-1.74,4.65c.27.4,0,2.475.105,4.14-.45,8.19,5.76,16.155,12.54,18a13.9,13.9,0,0,0,3.735.375c-1.485-.42-1.68-.225-3.12-.735-1.05-.48-1.275-1.05-2.01-1.695l.3.525c-1.455-.51-.855-.63-2.04-1.005l.315-.4a2.738,2.738,0,0,1-1.455-1.215l-.51.015c-.615-.75-.945-1.305-.915-1.74l-.165.3c-.195-.315-2.28-2.85-1.2-2.265a2.425,2.425,0,0,1-.75-.825l.21-.255a4.206,4.206,0,0,1-.93-1.8,1.186,1.186,0,0,0,.675.5c-1.32-3.255-1.395-.18-2.4-3.3l.225-.03a7.334,7.334,0,0,1-.39-.765l.09-.9c-.945-1.11-.27-4.65-.135-6.6a19.535,19.535,0,0,1,1.32-2.97l-.315-.06c.6-1.065,3.51-4.3,4.86-4.14.645-.825-.135,0-.27-.21,1.44-1.485,1.89-1.05,2.85-1.32,1.05-.6-.9.24-.4-.225,1.8-.45,1.275-1.05,3.63-1.275.24.15-.585.21-.78.39,1.5-.735,4.725-.555,6.84.405,2.445,1.155,5.19,4.515,5.3,7.695l.12.03a14.414,14.414,0,0,1-.255,4.065l.3-.63m-14.805,4.3-.075.42a8.468,8.468,0,0,0,1.2,1.515c-.36-.7-.63-.99-1.125-1.95m.93-.03a3.159,3.159,0,0,1-.465-.78,4.9,4.9,0,0,0,.645,1.32l-.18-.54m16.41-3.57-.1.225A10.52,10.52,0,0,1,30.51,19.77a9.878,9.878,0,0,0,1.125-3.54M18.675.18A14.214,14.214,0,0,1,20.1,0c-.555.045-1.11.075-1.65.15l.225.03M4.515,7.71c.105.855-.645,1.2.165.63.45-.99-.165-.27-.15-.63M3.57,11.7a12.666,12.666,0,0,0,.3-1.26c-.525.66-.255.8-.3,1.245" transform="translate(-3.54)" fill="#1ba19c"/>
</svg>
