<svg xmlns="http://www.w3.org/2000/svg" width="21.26" height="21.26" viewBox="0 0 21.26 21.26">
  <path id="Icon_ionic-md-exit" data-name="Icon ionic-md-exit" d="M12.886,19.382l1.653,1.653,5.906-5.905L14.539,9.224l-1.653,1.653,3.071,3.071H4.5v2.362H15.9ZM23.4,4.5H6.862A2.369,2.369,0,0,0,4.5,6.862v4.724H6.862V6.862H23.4V23.4H6.862V18.673H4.5V23.4A2.369,2.369,0,0,0,6.862,25.76H23.4A2.369,2.369,0,0,0,25.76,23.4V6.862A2.369,2.369,0,0,0,23.4,4.5Z" transform="translate(-4.5 -4.5)" fill="#fff"/>
</svg>
