<svg xmlns="http://www.w3.org/2000/svg" width="22.26" height="19.477" viewBox="0 0 22.26 19.477">
  <path id="Icon_awesome-server" data-name="Icon awesome-server" d="M20.869,7.815H1.391A1.391,1.391,0,0,1,0,6.424V3.641A1.391,1.391,0,0,1,1.391,2.25H20.869A1.391,1.391,0,0,1,22.26,3.641V6.424A1.391,1.391,0,0,1,20.869,7.815ZM18.782,3.989a1.043,1.043,0,1,0,1.043,1.043A1.043,1.043,0,0,0,18.782,3.989ZM16,3.989a1.043,1.043,0,1,0,1.043,1.043A1.043,1.043,0,0,0,16,3.989Zm4.869,10.782H1.391A1.391,1.391,0,0,1,0,13.38V10.6A1.391,1.391,0,0,1,1.391,9.206H20.869A1.391,1.391,0,0,1,22.26,10.6V13.38A1.391,1.391,0,0,1,20.869,14.771Zm-2.087-3.826a1.043,1.043,0,1,0,1.043,1.043A1.043,1.043,0,0,0,18.782,10.945Zm-2.782,0a1.043,1.043,0,1,0,1.043,1.043A1.043,1.043,0,0,0,16,10.945Zm4.869,10.782H1.391A1.391,1.391,0,0,1,0,20.336V17.554a1.391,1.391,0,0,1,1.391-1.391H20.869a1.391,1.391,0,0,1,1.391,1.391v2.782A1.391,1.391,0,0,1,20.869,21.727ZM18.782,17.9a1.043,1.043,0,1,0,1.043,1.043A1.043,1.043,0,0,0,18.782,17.9ZM16,17.9a1.043,1.043,0,1,0,1.043,1.043A1.043,1.043,0,0,0,16,17.9Z" transform="translate(0 -2.25)" fill="#fff"/>
</svg>
