<svg xmlns="http://www.w3.org/2000/svg" width="17.626" height="10.893" viewBox="0 0 17.626 10.893">
  <path id="Icon_awesome-eye" data-name="Icon awesome-eye" d="M17.52,9.532A9.914,9.914,0,0,0,8.813,4.5,9.915,9.915,0,0,0,.107,9.533a.858.858,0,0,0,0,.828,9.914,9.914,0,0,0,8.707,5.032A9.915,9.915,0,0,0,17.52,10.36.858.858,0,0,0,17.52,9.532Zm-8.707,4.5A4.255,4.255,0,0,1,4.407,9.946,4.255,4.255,0,0,1,8.813,5.862,4.255,4.255,0,0,1,13.22,9.946,4.253,4.253,0,0,1,8.813,14.031Zm0-6.808a3.13,3.13,0,0,0-.775.108,1.285,1.285,0,0,1-.144,1.764,1.551,1.551,0,0,1-1.9.133,2.623,2.623,0,0,0,1.2,2.968,3.119,3.119,0,0,0,3.416-.1,2.6,2.6,0,0,0,.991-3.032A2.923,2.923,0,0,0,8.813,7.223Z" transform="translate(0 -4.5)" fill="#fff"/>
</svg>
