<svg xmlns="http://www.w3.org/2000/svg" width="31.739" height="25.778" viewBox="0 0 31.739 25.778">
  <path id="Icon_awesome-twitter" data-name="Icon awesome-twitter" d="M28.477,9.805c.02.282.02.564.02.846,0,8.6-6.545,18.508-18.508,18.508A18.382,18.382,0,0,1,0,26.239a13.456,13.456,0,0,0,1.571.081A13.027,13.027,0,0,0,9.647,23.54a6.516,6.516,0,0,1-6.082-4.511,8.2,8.2,0,0,0,1.229.1A6.88,6.88,0,0,0,6.5,18.908a6.506,6.506,0,0,1-5.216-6.384v-.081a6.551,6.551,0,0,0,2.94.826,6.515,6.515,0,0,1-2.014-8.7,18.49,18.49,0,0,0,13.413,6.807,7.343,7.343,0,0,1-.161-1.49A6.511,6.511,0,0,1,26.724,5.435a12.807,12.807,0,0,0,4.128-1.571,6.487,6.487,0,0,1-2.86,3.585,13.04,13.04,0,0,0,3.746-1.007,13.983,13.983,0,0,1-3.262,3.363Z" transform="translate(0 -3.381)" fill="#fff"/>
</svg>
