<svg xmlns="http://www.w3.org/2000/svg" width="47.554" height="54.896" viewBox="0 0 47.554 54.896">
  <path id="Icon_simple-nginx" data-name="Icon simple-nginx" d="M26.184,0,2.407,13.724V41.172L26.184,54.9,49.961,41.172V13.724ZM39.908,37.947a3.215,3.215,0,0,1-3.5,2.951,5.369,5.369,0,0,1-4.119-1.853L18.568,22.711V37.945A2.92,2.92,0,0,1,15.653,40.9H15.48a2.971,2.971,0,0,1-2.951-2.951v-21A3.17,3.17,0,0,1,15.96,14a5.454,5.454,0,0,1,4.186,1.853L33.8,32.185V16.949A2.971,2.971,0,0,1,36.752,14h.172a2.973,2.973,0,0,1,2.951,2.951v21Z" transform="translate(-2.407)" fill="#21ab21"/>
</svg>
