<svg xmlns="http://www.w3.org/2000/svg" width="21.26" height="17.989" viewBox="0 0 21.26 17.989">
  <g id="Icon_ionic-ios-options" data-name="Icon ionic-ios-options" transform="translate(-3.375 -5.625)">
    <path id="Caminho_1699" data-name="Caminho 1699" d="M16.218,25.977a2.047,2.047,0,0,1,3.751,0h3.848a.82.82,0,0,1,.818.818h0a.82.82,0,0,1-.818.818H19.969a2.047,2.047,0,0,1-3.751,0H4.193a.82.82,0,0,1-.818-.818h0a.82.82,0,0,1,.818-.818Z" transform="translate(0 -5.224)" fill="#fff"/>
    <path id="Caminho_1700" data-name="Caminho 1700" d="M8.041,16.414a2.047,2.047,0,0,1,3.751,0H23.817a.82.82,0,0,1,.818.818h0a.82.82,0,0,1-.818.818H11.792a2.047,2.047,0,0,1-3.751,0H4.193a.82.82,0,0,1-.818-.818h0a.82.82,0,0,1,.818-.818Z" transform="translate(0 -2.612)" fill="#fff"/>
    <path id="Caminho_1701" data-name="Caminho 1701" d="M16.218,6.852a2.047,2.047,0,0,1,3.751,0h3.848a.82.82,0,0,1,.818.818h0a.82.82,0,0,1-.818.818H19.969a2.047,2.047,0,0,1-3.751,0H4.193a.82.82,0,0,1-.818-.818h0a.82.82,0,0,1,.818-.818Z" fill="#fff"/>
  </g>
</svg>
